<?xml version="1.0" standalone="no"?><!DOCTYPE svg PUBLIC "-//W3C//DTD SVG 1.1//EN" "http://www.w3.org/Graphics/SVG/1.1/DTD/svg11.dtd"><svg t="1608255913071" class="icon" viewBox="0 0 1024 1024" version="1.1" xmlns="http://www.w3.org/2000/svg" p-id="1536" xmlns:xlink="http://www.w3.org/1999/xlink" width="200" height="200"><defs><style type="text/css"></style></defs><path d="M656.7 462H562V356.7c0-24.6-20.1-44.7-44.7-44.7-30.4 0-55.3 24.9-55.3 55.3V462h-94.7c-30.4 0-55.3 24.9-55.3 55.3 0 24.6 20.1 44.7 44.7 44.7H462v94.7c0 30.4 24.9 55.3 55.3 55.3 24.6 0 44.7-20.1 44.7-44.7V562h105.3c24.6 0 44.7-20.1 44.7-44.7 0-30.4-24.9-55.3-55.3-55.3z" fill="#7c44e2" p-id="1537"></path><path d="M712 112h-20c-22.1 0-40 17.9-40 40s17.9 40 40 40h20c31.8 0 61.9 12.5 84.7 35.3S832 280.2 832 312v20c0 22.1 17.9 40 40 40s40-17.9 40-40v-20c0-110-90-200-200-200zM332 112h-20c-110 0-200 90-200 200v20c0 22.1 17.9 40 40 40s40-17.9 40-40v-20c0-31.8 12.5-61.9 35.3-84.7S280.2 192 312 192h20c22.1 0 40-17.9 40-40s-17.9-40-40-40zM332 832h-20c-31.8 0-61.9-12.5-84.7-35.3S192 743.8 192 712v-20c0-22.1-17.9-40-40-40s-40 17.9-40 40v20c0 110 90 200 200 200h20c22.1 0 40-17.9 40-40s-17.9-40-40-40zM872 652c-22.1 0-40 17.9-40 40v20c0 31.8-12.5 61.9-35.3 84.7S743.8 832 712 832h-20c-22.1 0-40 17.9-40 40s17.9 40 40 40h20c110 0 200-90 200-200v-20c0-22.1-17.9-40-40-40z" fill="#4a5fe2" p-id="1538"></path></svg>