<?xml version="1.0" standalone="no"?><!DOCTYPE svg PUBLIC "-//W3C//DTD SVG 1.1//EN" "http://www.w3.org/Graphics/SVG/1.1/DTD/svg11.dtd"><svg t="1605596259118" class="icon" viewBox="0 0 1024 1024" version="1.1" xmlns="http://www.w3.org/2000/svg" p-id="8440" xmlns:xlink="http://www.w3.org/1999/xlink" width="200" height="200"><defs><style type="text/css"></style></defs><path d="M511.999795 0c282.767247 0 511.999795 229.232548 511.999795 511.999795 0 282.777487-229.232548 511.999795-511.999795 511.999795S0 794.777282 0 511.999795C0 229.232548 229.232548 0 511.999795 0z" fill="#82D2ED" p-id="8441"></path><path d="M511.999795 1023.99959a509.552436 509.552436 0 0 1-296.959881-95.037402V337.919865a51.19998 51.19998 0 0 1 51.19998-51.19998h409.599836a51.19998 51.19998 0 0 1 51.199979 51.19998v638.729984A509.849396 509.849396 0 0 1 511.999795 1023.99959z" fill="#324D5B" p-id="8442"></path><path d="M675.83973 286.719885H471.039812v735.661786a521.010992 521.010992 0 0 0 40.959983 1.617919 509.849396 509.849396 0 0 0 215.039914-47.349741V337.919865a51.19998 51.19998 0 0 0-51.199979-51.19998z" fill="#385360" p-id="8443"></path><path d="M599.03976 696.319721s46.079982 55.633898 46.079982 83.199967S624.48615 829.439668 599.03976 829.439668 552.959779 807.085757 552.959779 779.519688L599.03976 696.319721z" fill="#EFC75E" p-id="8444"></path><path d="M296.959881 337.919865h348.159861a30.719988 30.719988 0 0 1 30.719988 30.719988v215.039914a30.719988 30.719988 0 0 1-30.719988 30.719987H296.959881a30.719988 30.719988 0 0 1-30.719987-30.719987V368.639853a30.719988 30.719988 0 0 1 30.719987-30.719988z" fill="#EDEDED" p-id="8445"></path><path d="M471.039812 450.55982c-90.490844 0-163.839934 73.359331-163.839935 163.839934h327.679869c0-90.480604-73.349091-163.839934-163.839934-163.839934z" fill="#FFFFFF" p-id="8446"></path><path d="M645.119742 337.919865H296.959881a30.719988 30.719988 0 0 0-30.719987 30.719988v30.719987a30.719988 30.719988 0 0 1 30.719987-30.719987h348.159861a30.719988 30.719988 0 0 1 30.719988 30.719987v-30.719987a30.719988 30.719988 0 0 0-30.719988-30.719988z" fill="#D5D5D5" p-id="8447"></path><path d="M531.025708 538.879784L502.681399 588.697365c5.734398 7.045117 9.318396 15.912954 9.318396 25.702389a40.959984 40.959984 0 1 1-40.959983-40.959983c4.884478 0 9.492476 1.00352 13.834234 2.559999l27.381749-48.127981c2.990079-5.273598 9.615356-7.065597 14.807034-4.034559s6.952957 9.768956 3.962879 15.042554z" fill="#E2574C" p-id="8448"></path><path d="M839.597744 621.772551c0.29696-1.05472 0.43008-2.119679 0.50176-3.368958l-0.58368-156.293058c0.27648-13.834234-4.833278-26.388469-17.960953-30.699508l-94.607322-32.184307v40.130544l65.740774 20.070392s-24.82175 31.825907-24.82175 53.125099c0 103.362519-3.409919 122.798031 36.669425 122.798031 7.301117 100.12668 41.830383 180.387768 67.430373 239.984544l0.21504 0.49152a521.461551 521.461551 0 0 0 25.79455-27.607029c-24.30975-57.251817-53.319659-132.341707-58.521577-223.487911-0.06144-1.15712-0.1536-1.884159 0.14336-2.959359zM808.959676 594.042642a10.117116 10.117116 0 0 1-10.117116 10.117116h-0.235519a10.117116 10.117116 0 0 1-10.127356-10.117116v-71.915491c0-5.601278 4.526078-10.127356 10.117116-10.127356h0.235519c5.601278 0 10.127356 4.526078 10.127356 10.117116v71.925731z m-0.952319 332.042108l0.73728-55.889898c0.1536-14.520314 1.546239-29.777908-2.908159-43.909103-4.495358-14.335994-11.796475-25.07775-23.377911-32.901106-14.295034-9.717756-37.283825-15.165434-55.500778-15.964154v30.453748c11.786235 0.69632 26.818549 3.389439 34.744306 8.785916 3.839998 2.611199 10.516476 11.980795 12.789755 16.281594 5.437438 10.199036 3.563519 22.015991 3.348479 33.218547l-0.65536 65.515493c-0.09216 6.389757 0.21504 12.298235 0.75776 17.909753a510.822196 510.822196 0 0 0 30.197748-20.049912l-0.13312-3.450878z" fill="#324D5B" p-id="8449"></path></svg>