<?xml version="1.0" standalone="no"?><!DOCTYPE svg PUBLIC "-//W3C//DTD SVG 1.1//EN" "http://www.w3.org/Graphics/SVG/1.1/DTD/svg11.dtd"><svg t="1605597817069" class="icon" viewBox="0 0 1024 1024" version="1.1" xmlns="http://www.w3.org/2000/svg" p-id="17760" xmlns:xlink="http://www.w3.org/1999/xlink" width="200" height="200"><defs><style type="text/css"></style></defs><path d="M805.3 311.4h-15.4c-1.6 0-2.2-2.1-0.9-3l66.1-45.4c9.7-6.6 5-21.8-6.8-21.8h-33.9c-5 0-9.1-4.1-9.1-9.1v-51.5c0-8.4-6.8-15.3-15.3-15.3H666.5c-8.4 0-15.3 6.8-15.3 15.3V232c0 5-4.1 9.1-9.1 9.1h-33.9c-11.7 0-16.4 15.2-6.8 21.8l66.2 45.4c1.3 0.9 0.7 2.9-0.9 2.9H219.2c-45.6 0-82.9 37.3-82.9 82.9v346.1c0 45.6 37.3 82.9 82.9 82.9h586.1c45.6 0 82.9-37.3 82.9-82.9v-346c0-45.5-37.3-82.8-82.9-82.8z" fill="#FEAC33" p-id="17761"></path><path d="M136.4 662.5v77.8c0 16 4.6 30.9 12.5 43.6 2.2 3.1 4.5 6.3 6.7 9.3 15.2 18.3 38.1 29.9 63.6 29.9H263c-55.1-41.3-99-96.6-126.6-160.6zM830.2 280.1l24.9-17.1c9.7-6.6 5-21.8-6.8-21.8h-33.9c-5 0-9.1-4.1-9.1-9.1v-51.5c0-8.4-6.8-15.3-15.3-15.3h-80.9c48.1 29.3 89.3 68.5 121.1 114.8zM888.2 394.2c0-24.4-10.7-46.4-27.6-61.6 11.7 24.3 21 49.9 27.6 76.6v-15zM888.2 740.3V600.7c-22.3 90.2-75.3 168.3-147.4 222.5h64.5c45.6 0 82.9-37.3 82.9-82.9z" fill="#FEAC33" p-id="17762"></path><path d="M888.2 600.7V409.3c-6.6-26.7-15.9-52.3-27.6-76.6-14.7-13.2-34.1-21.3-55.3-21.3h-15.4c-1.6 0-2.2-2.1-0.9-3l41.2-28.3c-31.7-46.3-73-85.5-121-114.8h-42.7c-8.4 0-15.3 6.8-15.3 15.3v5.7c105.2 58.6 176.4 171 176.4 300 0 167.3-119.7 306.6-278.2 337h191.3c72.2-54.3 125.2-132.4 147.5-222.6zM141.3 486.2c0-60.7 15.8-117.8 43.5-167.2-28.5 13.2-48.4 42-48.4 75.3v268.2C164 726.5 208 781.8 263 823.2h156.5c-158.5-30.4-278.2-169.7-278.2-337z" fill="#FEB133" p-id="17763"></path><path d="M827.6 486.2c0-129-71.2-241.3-176.4-300V232c0 3.9-2.5 7.3-6 8.6 67.1 52.8 110.2 134.8 110.2 226.8 0 159.3-129.1 288.5-288.5 288.5S178.6 626.7 178.6 467.4c0-57.5 16.8-111.1 45.8-156.1h-5.2c-12.3 0-24 2.7-34.5 7.6-27.7 49.5-43.5 106.5-43.5 167.2 0 167.3 119.7 306.6 278.2 337h130.1c158.4-30.3 278.1-169.6 278.1-336.9z" fill="#FEB633" p-id="17764"></path><path d="M467 755.9c159.3 0 288.5-129.1 288.5-288.5 0-92-43.1-174-110.2-226.8-1 0.4-2 0.6-3.1 0.6h-33.9c-11.7 0-16.4 15.2-6.8 21.8l66.2 45.4c1.3 0.9 0.7 2.9-0.9 2.9h-28c28 38.5 44.6 86 44.6 137.3 0 129.1-104.6 233.7-233.7 233.7S215.9 577.7 215.9 448.6c0-51.3 16.5-98.7 44.6-137.3h-36c-29 45-45.8 98.6-45.8 156.1-0.1 159.3 129 288.5 288.3 288.5z" fill="#FFBC34" p-id="17765"></path><path d="M449.6 682.4c129.1 0 233.7-104.6 233.7-233.7 0-51.3-16.5-98.7-44.6-137.3h-72.4c27.9 31.6 44.9 73.1 44.9 118.5 0 98.9-80.1 179-179 179s-179-80.1-179-179c0-45.4 16.9-86.9 44.9-118.5h-37.6c-28 38.5-44.6 86-44.6 137.3 0 129 104.6 233.7 233.7 233.7z" fill="#FFC134" p-id="17766"></path><path d="M432.2 608.9c98.9 0 179-80.1 179-179 0-45.4-16.9-86.9-44.9-118.5h-77.4c30.4 22.7 50.1 58.9 50.1 99.7 0 68.6-55.6 124.3-124.3 124.3s-124.3-55.6-124.3-124.3c0-40.8 19.7-77.1 50.1-99.7H298c-27.9 31.6-44.9 73.1-44.9 118.5 0.1 98.8 80.2 179 179.1 179z" fill="#FFC634" p-id="17767"></path><path d="M290.5 411.1c0 68.6 55.6 124.3 124.3 124.3S539 479.7 539 411.1c0-40.8-19.7-77.1-50.1-99.7H340.6c-30.4 22.6-50.1 58.8-50.1 99.7z" fill="#FFCB34" p-id="17768"></path><path d="M805.3 832.1H219.2c-50.7 0-91.9-41.2-91.9-91.9V394.1c0-50.7 41.2-91.9 91.9-91.9h423.6l-46.5-31.9c-7.7-5.3-10.9-14.5-8.1-23.5 2.8-9 10.6-14.8 20-14.8h33.9l0.1-0.1v-51.4c0-13.4 10.9-24.3 24.3-24.3H790c13.4 0 24.3 10.9 24.3 24.3V232l0.1 0.1h33.9c9.4 0 17.3 5.8 20.1 14.8 2.8 9-0.5 18.2-8.2 23.4l-47 32.3c47 4 84.1 43.5 84.1 91.5v346c-0.1 50.8-41.3 92-92 92zM219.2 320.2c-40.7 0-73.9 33.2-73.9 73.9v346.1c0 40.7 33.2 73.9 73.9 73.9h586.1c40.7 0 73.9-33.2 73.9-73.9v-346c0-40.7-33.2-73.8-73.9-73.8h-15.4c-4.7 0-8.7-3-10.1-7.5-1.4-4.5 0.2-9.3 4.1-11.9l66.1-45.4c1.5-1 1.5-2.3 1.2-3.3-0.3-1-1-2.1-2.9-2.1h-33.9c-10 0-18.1-8.1-18.1-18.1v-51.5c0-3.5-2.8-6.3-6.3-6.3H666.5c-3.5 0-6.3 2.8-6.3 6.3V232c0 10-8.1 18.1-18.1 18.1h-33.9c-1.8 0-2.5 1.1-2.8 2.1-0.3 1-0.3 2.3 1.1 3.3l66.2 45.4c3.9 2.7 5.5 7.5 4.1 11.9-1.4 4.4-5.5 7.4-10.1 7.4H219.2z" fill="#FFA820" p-id="17769"></path><path d="M753.5 648.3c-3.4 0-6.2-2.8-6.2-6.2v-14.6c0-2.3 1.7-4.4 4-4.8 36-6.5 55-34.9 55-65.9 0-33-17-52.9-60.2-67.9-31.1-11.2-43.8-19.1-43.8-30.7 0-10.1 7.6-20.6 31.1-20.6 16.3 0 29 3.2 38.5 6.7 7.4 2.8 15.7-1.5 17.7-9.2 1.2-4.9 2.7-10.1 3.9-14.6 1.7-6.6-1.8-13.4-8.1-15.8-9.5-3.6-20.8-6.3-36.1-7.2-2.2-0.1-4-2-4-4.2V376c0-5.8-4.7-10.5-10.5-10.5H717c-5.8 0-10.5 4.7-10.5 10.5v20.4c0 2-1.4 3.8-3.3 4.2-36.6 8-56.1 32.4-56.1 63.7 0 35.1 26.4 53.1 65.1 66.2 27.2 9 38.8 17.8 38.8 31.5 0 14.1-14.1 22.4-35.1 22.4-17.1 0-32.9-4-46.2-9.3-7.4-3-15.8 1.2-17.8 9-1.3 5.2-2.8 10.9-4 15.7-1.7 6.7 1.9 13.7 8.3 16.1 13 4.9 30.3 9 47.5 10.2 2.6 0.2 4.6 2.3 4.6 4.9v11.2c0 3.4-2.8 6.2-6.2 6.2H185.5c-10.8 0-19.5 8.8-19.5 19.5v36c0 10.8 8.8 19.5 19.5 19.5h655.3c10.8 0 19.5-8.8 19.5-19.5v-36c0-10.8-8.8-19.5-19.5-19.5h-87.3v-0.1z" fill="#FFE3B4" p-id="17770"></path><path d="M191.8 458.4c-9.9 0-18-8.1-18-18v-16.3c0-42.4 34.5-76.9 76.9-76.9h38.6c9.9 0 18 8.1 18 18s-8.1 18-18 18h-38.6c-22.5 0-40.9 18.3-40.9 40.9v16.3c0 9.9-8 18-18 18zM191.8 528c-9.9 0-18-8.1-18-18v-10.5c0-9.9 8.1-18 18-18s18 8.1 18 18V510c0 9.9-8 18-18 18z" fill="#FFFFFF" p-id="17771"></path></svg>