<?xml version="1.0" encoding="utf-8"?>
<!-- Generator: Adobe Illustrator 25.0.0, SVG Export Plug-In . SVG Version: 6.00 Build 0)  -->
<svg version="1.1" id="图层_1" xmlns="http://www.w3.org/2000/svg" xmlns:xlink="http://www.w3.org/1999/xlink" x="0px" y="0px"
	 viewBox="0 0 104 36" style="enable-background:new 0 0 104 36;" xml:space="preserve">
<style type="text/css">
	.st0{fill:#FFFFFF;}
</style>
<path class="st0" d="M11,19.7l0.1-0.7H3.2l0.3-1.8h7.9l0.1-0.4h4.3l-0.1,0.4h3.5l0.7-0.5h5.3l-4.3,3h3.3L24,21.5H11.2l-1.1,0.7h13.1
	l-0.9,6H3.2l0.4-3.4H0.8L6,21.4H1.7L2,19.7H11z M25.3,12l-0.6,4.4H2.5L3.1,12H25.3z M7.5,10.8H3.3l0.3-2h3.9L6.8,8.1h5.9l-0.1,0.7
	h3.9l-0.6-0.7h5.9l-0.1,0.7H26l-0.3,2h-4.3l-0.1,0.7h-4.8l0.1-0.7h-4.3l-0.1,0.7H7.4L7.5,10.8z M9.5,14.6l0.1-0.9h-2l-0.1,0.9H9.5z
	 M17.5,26.5l0.1-0.7h-9l-0.1,0.7H17.5z M8.8,24.6h9l0.1-0.7h-9L8.8,24.6z M12.9,14.6h1.9l0.1-0.9H13L12.9,14.6z M15.7,19.7l1-0.7
	h-1.3l-0.1,0.7H15.7z M18.4,13.8l-0.1,0.9h1.9l0.1-0.9H18.4z"/>
<path class="st0" d="M26.8,27.8l4-5.9h4.8l-4,5.9H26.8z M33.6,28.3l2.5-2.6l0.6-4.3h-8.5l0.4-2.7h8.5l0.2-1.1h5.3l-0.2,1.1h8.5
	l-0.4,2.7H42l-0.7,5c-0.1,0.5-0.3,1-0.8,1.3c-0.4,0.3-0.9,0.5-1.4,0.5h-5.5V28.3z M43.6,17.7L40,16.4l-3.9,1.3h-7.4l0.4-2.7h5.5
	l0.9-0.3l-2.1-0.8h-4.1l3.1-5.1l-0.6-0.7h6.4l-0.6,1.1h13.8l-0.5,3.7l-5.6,1.8L46,15h5.5l-0.4,2.7H43.6z M37,11.8l3.5,1.3l3.9-1.3
	H37z M45.4,27.8L43,21.9h4.8l2.4,5.9H45.4z"/>
<path class="st0" d="M53.1,28.3l1.7-12.2H53l0.4-2.7H60l-1.5,11l1.7-0.4l-0.4,2.7L53.1,28.3z M59.3,8.6l1.1,3.7H56l-1.1-3.7H59.3z
	 M71,15.9l0.6-4.6h-9L63,8.7h13.9l-1.4,9.9h-8.8l-0.8,6.1h7.9l1.5-1l-0.6,4H60.4l1.7-11.8C62.1,15.9,71,15.9,71,15.9z"/>
<path class="st0" d="M86.7,12.2l-1.5,10.6l2.8,5.3h-4l-0.8-1.9l-1.2,2h-4l4.2-5.2l1.5-10.8H86.7z M90.7,8.6l-2.1,15.1h-2.1l-0.6-1.5
	l1.5-11h-4.1l-1.5,11l-1.1,1.5h-2l2.1-15.1H90.7z M91.4,17.9h-1.2l0.4-2.7h1.2l0.9-6l-0.9-1.1H97l-1,7.1h0.6l2.9-6.3h3.9l-2.9,6.3
	h2.3l-0.4,2.7h-6.7l-1,7.1l2-0.4l-0.4,2.7l-6.2,1L91.4,17.9z M99.9,18.6l1.3,9.7h-3.9L96,18.6H99.9z"/>
</svg>
