<?xml version="1.0" standalone="no"?><!DOCTYPE svg PUBLIC "-//W3C//DTD SVG 1.1//EN" "http://www.w3.org/Graphics/SVG/1.1/DTD/svg11.dtd"><svg t="1605596236681" class="icon" viewBox="0 0 1024 1024" version="1.1" xmlns="http://www.w3.org/2000/svg" p-id="7476" xmlns:xlink="http://www.w3.org/1999/xlink" width="200" height="200"><defs><style type="text/css"></style></defs><path d="M912.36 904.34h-799.2c-24.49 0-44.4-19.92-44.4-44.4v-566.1c0-24.48 19.91-44.4 44.4-44.4h799.2c24.49 0 44.4 19.92 44.4 44.4v566.1c0 24.48-19.91 44.4-44.4 44.4z m-799.19-610.5v566.1H912.4l-0.03-566.1h-799.2z" fill="#333333" p-id="7477"></path><path d="M337.5 282.74c-12.06 0-21.95-9.66-22.19-21.77l-2.34-122.1a22.226 22.226 0 0 1 6.35-15.97c4.17-4.26 9.89-6.66 15.85-6.66h355.2c12.26 0 22.2 9.94 22.2 22.2v122.1c0 12.26-9.94 22.2-22.2 22.2s-22.2-9.94-22.2-22.2v-99.9H357.8l1.91 99.47c0.23 12.26-9.52 22.39-21.78 22.62-0.14 0.01-0.29 0.01-0.43 0.01z" fill="#333333" p-id="7478"></path><path d="M668.17 593.54h-333c-12.26 0-22.2-9.94-22.2-22.2s9.94-22.2 22.2-22.2h333c12.26 0 22.2 9.94 22.2 22.2s-9.94 22.2-22.2 22.2z" fill="#D7261D" p-id="7479"></path><path d="M501.67 760.04c-12.26 0-22.2-9.94-22.2-22.2v-321.9c0-12.26 9.94-22.2 22.2-22.2s22.2 9.94 22.2 22.2v321.9c0 12.26-9.94 22.2-22.2 22.2z" fill="#D7261D" p-id="7480"></path></svg>