<?xml version="1.0" standalone="no"?><!DOCTYPE svg PUBLIC "-//W3C//DTD SVG 1.1//EN" "http://www.w3.org/Graphics/SVG/1.1/DTD/svg11.dtd"><svg t="1605867371255" class="icon" viewBox="0 0 1024 1024" version="1.1" xmlns="http://www.w3.org/2000/svg" p-id="11414" xmlns:xlink="http://www.w3.org/1999/xlink" width="200" height="200"><defs><style type="text/css"></style></defs><path d="M811.05 896l-66-97.95V296.85h132v501.2z" fill="#FFCC80" p-id="11415"></path><path d="M811.05 896l22-97.95v-40.3h-44v40.3z" fill="#FFD9A0" p-id="11416"></path><path d="M811.05 896l-23-34.15h46z" fill="#212121" p-id="11417"></path><path d="M789.05 344.85h-44v453.2l22-17.1 22 17.1z" fill="#FFA726" p-id="11418"></path><path d="M789.05 344.85h44v453.2l-22-17.1-22 17.1z" fill="#FB8C00" p-id="11419"></path><path d="M877.05 344.85h-44v453.2l22-17.1 22 17.1z" fill="#FFA726" p-id="11420"></path><path d="M162.9 198.2h502.95c8.85 0 16 7.15 16 16v665.4c0 8.85-7.15 16-16 16H162.9c-8.85 0-16-7.15-16-16V214.2c0-8.85 7.15-16 16-16z" fill="#795548" p-id="11421"></path><path d="M744.95 314V263.9c0-18.2 7.45-34.7 19.4-46.7 11.95-11.95 28.5-19.4 46.7-19.4 18.2 0 34.7 7.45 46.7 19.4 11.95 11.95 19.4 28.5 19.4 46.7v50h-132.1v0.05l-0.1 0.05z" fill="#EF5350" p-id="11422"></path><path d="M626.5 817.15V276.55c0-6.65-5.35-12-12-12H214.25c-6.65 0-12 5.35-12 12v540.6c0 6.65 5.35 12 12 12H614.5c6.6 0 12-5.35 12-12z" fill="#FFFFFE" p-id="11423"></path><path d="M262.2 128H566.5c8.85 0 16 7.15 16 16v140.4c0 8.85-7.15 16-16 16H262.2c-8.85 0-16-7.15-16-16V144c0-8.85 7.15-16 16-16z" fill="#FFB74D" p-id="11424"></path><path d="M745.05 316.3h132v2.35h-132zM745.05 320.95h132v2.35h-132zM745.05 325.65h132v2.35h-132zM745.05 330.35h132v2.35h-132zM745.05 335.05h132v2.35h-132zM745.05 339.7h132v2.35h-132z" fill="#D5AC6E" p-id="11425"></path><path d="M285.9 156.15c-2.2 0-4 1.8-4 4s1.8 4 4 4h256.9c2.2 0 4-1.8 4-4s-1.8-4-4-4H285.9zM285.9 177.75c-2.2 0-4 1.8-4 4s1.8 4 4 4h256.9c2.2 0 4-1.8 4-4s-1.8-4-4-4H285.9zM285.9 199.4c-2.2 0-4 1.8-4 4s1.8 4 4 4h256.9c2.2 0 4-1.8 4-4s-1.8-4-4-4H285.9zM285.9 221c-2.2 0-4 1.8-4 4s1.8 4 4 4h256.9c2.2 0 4-1.8 4-4s-1.8-4-4-4H285.9zM285.9 242.65c-2.2 0-4 1.8-4 4s1.8 4 4 4h256.9c2.2 0 4-1.8 4-4s-1.8-4-4-4H285.9zM285.9 264.25c-2.2 0-4 1.8-4 4s1.8 4 4 4h256.9c2.2 0 4-1.8 4-4s-1.8-4-4-4H285.9z" fill="#D59B45" p-id="11426"></path></svg>