<?xml version="1.0" standalone="no"?><!DOCTYPE svg PUBLIC "-//W3C//DTD SVG 1.1//EN" "http://www.w3.org/Graphics/SVG/1.1/DTD/svg11.dtd"><svg t="1605597809272" class="icon" viewBox="0 0 1024 1024" version="1.1" xmlns="http://www.w3.org/2000/svg" p-id="16888" xmlns:xlink="http://www.w3.org/1999/xlink" width="200" height="200"><defs><style type="text/css"></style></defs><path d="M808.1 285.4v-40.9c0-5 4.1-9.1 9.1-9.1h33.9c11.7 0 16.4-15.2 6.8-21.8l-104.1-71.5a40.07 40.07 0 0 0-45.4 0l-104.1 71.5c-9.7 6.6-5 21.8 6.8 21.8H645c5 0 9.1 4.1 9.1 9.1v40.9H222c-45.6 0-82.9 37.3-82.9 82.9v346.1c0 45.6 37.3 82.9 82.9 82.9h586.1c45.6 0 82.9-37.3 82.9-82.9V368.3c0-45.6-37.3-82.9-82.9-82.9z" fill="#FF556E" p-id="16889"></path><path d="M810.1 238.8c1.7-2.1 4.2-3.4 7.1-3.4h33.9c11.7 0 16.4-15.2 6.8-21.8l-104.1-71.5a40.07 40.07 0 0 0-45.4 0l-17.8 12.2c45 20.7 85.5 49.5 119.5 84.5z" fill="#FF556E" p-id="16890"></path><path d="M863 306.4c10.4 16.7 19.6 34.2 27.4 52.5-2.4-20.8-12.5-39.3-27.4-52.5z" fill="#FEAC33" p-id="16891"></path><path d="M139.1 368.3v49.5C151 371 171.2 327.5 198 289c-34 10.3-58.9 42-58.9 79.3zM139.1 714.4c0 45.6 37.3 82.9 82.9 82.9h21.2c-49.7-49.7-86.2-112.6-104.1-182.8v99.9zM891 714.4v-42.3c-20.1 47.1-49 89.5-84.6 125.2h1.7c45.6 0 82.9-37.3 82.9-82.9z" fill="#FF556E" p-id="16892"></path><path d="M164.2 497.4c0-80 27.4-153.6 73.2-211.9H222c-8.3 0-16.4 1.3-24 3.6-26.8 38.5-47 82-58.9 128.8v196.6c17.9 70.3 54.4 133.1 104.1 182.8h97.3c-105.2-58.7-176.3-171-176.3-299.9zM891 368.3c0-3.2-0.2-6.3-0.6-9.5-7.9-18.2-17-35.8-27.4-52.5-14.6-13-33.9-20.9-54.9-21v-40.9c0-2.2 0.8-4.2 2-5.7-34.1-35.1-74.6-63.9-119.6-84.5L647.4 184c119.7 53.6 203.1 173.7 203.1 313.4 0 129-71.1 241.3-176.3 299.9h132.1c35.6-35.7 64.5-78.1 84.6-125.2l0.1-303.8z" fill="#FF5F71" p-id="16893"></path><path d="M850.5 497.4c0-139.7-83.4-259.8-203.1-313.4l-43.1 29.6s-0.1 0-0.1 0.1c14.3 6.2 28 13.5 41 21.8 3.6 0.1 6.7 2.3 8.1 5.4 75.6 52 125.2 139.1 125.2 237.8 0 159.3-129.1 288.5-288.5 288.5S201.5 637.9 201.5 478.6c0-74.3 28.1-142 74.2-193.2h-38.3c-45.9 58.4-73.2 131.9-73.2 211.9 0 129 71.1 241.3 176.3 299.9h333.8c105.1-58.6 176.2-170.9 176.2-299.8z" fill="#FF6974" p-id="16894"></path><path d="M611 235.4H645.2c-13-8.3-26.7-15.6-41-21.8-9.6 6.7-4.9 21.8 6.8 21.8zM489.9 767c159.3 0 288.5-129.1 288.5-288.5 0-98.7-49.6-185.8-125.2-237.8 0.5 1.1 0.8 2.4 0.8 3.7v40.9h-25.9c47.9 42.8 78.1 105.1 78.1 174.4 0 129.1-104.6 233.7-233.7 233.7S238.8 588.9 238.8 459.8c0-69.3 30.2-131.6 78.1-174.4h-41.2c-46.1 51.1-74.2 118.9-74.2 193.2 0 159.3 129.1 288.4 288.4 288.4z" fill="#FF7377" p-id="16895"></path><path d="M238.8 459.8c0 129.1 104.6 233.7 233.7 233.7s233.7-104.6 233.7-233.7c0-69.3-30.2-131.6-78.1-174.4h-84.5c54 30.8 90.5 88.9 90.5 155.6 0 98.9-80.1 179-179 179s-179-80.1-179-179c0-66.6 36.4-124.8 90.5-155.6H317c-48 42.8-78.2 105.1-78.2 174.4z" fill="#FF7E7A" p-id="16896"></path><path d="M276.1 441c0 98.9 80.1 179 179 179s179-80.1 179-179c0-66.6-36.4-124.8-90.5-155.6H366.5c-54 30.8-90.4 89-90.4 155.6z m161.6-143c68.6 0 124.3 55.6 124.3 124.3s-55.6 124.3-124.3 124.3S313.4 491 313.4 422.3 369 298 437.7 298z" fill="#FF887D" p-id="16897"></path><path d="M313.4 422.2a124.3 124.3 0 1 0 248.6 0 124.3 124.3 0 1 0-248.6 0Z" fill="#FF9280" p-id="16898"></path><path d="M808.1 806.3H222c-50.7 0-91.9-41.2-91.9-91.9V368.3c0-50.7 41.2-91.9 91.9-91.9h423.1v-31.9l-0.1-0.1h-33.9c-9.4 0-17.3-5.8-20.1-14.8s0.5-18.2 8.2-23.4l104.1-71.5c16.9-11.6 38.7-11.6 55.6 0L863 206.2c7.7 5.3 10.9 14.5 8.1 23.5-2.8 9-10.6 14.8-20 14.8h-33.9l-0.1 0.1v32.3c46.5 4.5 82.9 43.8 82.9 91.5v346.1c0 50.6-41.2 91.8-91.9 91.8zM222 294.4c-40.7 0-73.9 33.2-73.9 73.9v346.1c0 40.7 33.2 73.9 73.9 73.9h586.1c40.7 0 73.9-33.2 73.9-73.9V368.3c0-40.7-33.2-73.9-73.9-73.9h-9v-49.9c0-10 8.1-18.1 18.1-18.1h33.9c1.8 0 2.5-1.1 2.8-2.1s0.3-2.3-1.1-3.3l-104.1-71.5c-10.7-7.3-24.5-7.3-35.2 0L609.4 221c-1.5 1-1.5 2.3-1.2 3.3s1 2.1 2.9 2.1H645c10 0 18.1 8.1 18.1 18.1v49.9H222z" fill="#EF4868" p-id="16899"></path><path d="M756.3 621.1c-3.4 0-6.2-2.8-6.2-6.2v-14.6c0-2.3 1.7-4.4 4-4.8 36-6.5 55-34.9 55-65.9 0-33-17-52.9-60.2-67.9-31.1-11.2-43.8-19.1-43.8-30.7 0-10.1 7.6-20.6 31.1-20.6 16.3 0 29 3.2 38.5 6.7 7.4 2.8 15.7-1.5 17.7-9.2 1.2-4.9 2.7-10.1 3.9-14.6 1.7-6.6-1.8-13.4-8.1-15.8-9.5-3.6-20.8-6.3-36.1-7.2-2.2-0.1-4-2-4-4.2v-17.3c0-5.8-4.7-10.5-10.5-10.5h-17.8c-5.8 0-10.5 4.7-10.5 10.5v20.4c0 2-1.4 3.8-3.3 4.2-36.6 8-56.1 32.4-56.1 63.7 0 35.1 26.4 53.1 65.1 66.2 27.2 9 38.8 17.8 38.8 31.5 0 14.1-14.1 22.4-35.1 22.4-17.1 0-32.9-4-46.2-9.3-7.4-3-15.8 1.2-17.8 9-1.3 5.2-2.8 10.9-4 15.7-1.7 6.7 1.9 13.7 8.3 16.1 13 4.9 30.3 9 47.5 10.2 2.6 0.2 4.6 2.3 4.6 4.9V615c0 3.4-2.8 6.2-6.2 6.2H188.3c-10.8 0-19.5 8.8-19.5 19.5v36c0 10.8 8.8 19.5 19.5 19.5h655.3c10.8 0 19.5-8.8 19.5-19.5v-36c0-10.8-8.8-19.5-19.5-19.5h-87.3v-0.1z" fill="#FFC7C7" p-id="16900"></path><path d="M194.6 431.2c-9.9 0-18-8.1-18-18v-16.3c0-42.4 34.5-76.9 76.9-76.9h38.6c9.9 0 18 8.1 18 18s-8.1 18-18 18h-38.6c-22.5 0-40.9 18.3-40.9 40.9v16.3c0 9.9-8 18-18 18zM194.6 500.8c-9.9 0-18-8.1-18-18v-10.5c0-9.9 8.1-18 18-18s18 8.1 18 18v10.5c0 9.9-8 18-18 18z" fill="#FFFFFF" p-id="16901"></path></svg>