<?xml version="1.0" standalone="no"?><!DOCTYPE svg PUBLIC "-//W3C//DTD SVG 1.1//EN" "http://www.w3.org/Graphics/SVG/1.1/DTD/svg11.dtd"><svg t="1605596148989" class="icon" viewBox="0 0 1024 1024" version="1.1" xmlns="http://www.w3.org/2000/svg" p-id="5492" xmlns:xlink="http://www.w3.org/1999/xlink" width="200" height="200"><defs><style type="text/css"></style></defs><path d="M940.2368 529.5104L788.5824 370.688V217.6512l-78.6432 61.2864-132.5568-129.3824a20.4288 20.4288 0 0 0-29.2864 0l-399.7184 409.3952c-12.6464 12.9536-3.4816 34.7648 14.6432 34.7648H256.512v310.4256c0 11.3152 9.1648 20.48 20.48 20.48h504.6784c11.3152 0 20.48-9.1648 20.48-20.48l-0.512-341.4016 124.0064 1.536c18.0736 0 27.2896-21.8112 14.592-34.7648z" fill="#88def9" p-id="5493"></path><path d="M790.9376 938.3936H229.888c-25.3952 0-46.08-20.6848-46.08-46.08v-310.4256H115.9168c-18.5856 0-35.2768-11.0592-42.4448-28.2112a45.94688 45.94688 0 0 1 9.5232-50.0736L482.6624 94.208a45.6704 45.6704 0 0 1 32.9728-13.8752c12.544 0 24.2176 4.9152 32.9728 13.8752l399.7184 409.3952a46.03904 46.03904 0 0 1 9.5232 50.0736 45.98784 45.98784 0 0 1-42.4448 28.2112h-78.336v310.4256c-0.0512 25.3952-20.736 46.08-46.1312 46.08z m-555.9296-51.2h550.7584v-330.9056c0-14.1312 11.4688-25.6 25.6-25.6h91.8016l-387.5328-396.9536-387.5328 396.9536H209.408c14.1312 0 25.6 11.4688 25.6 25.6v330.9056z m676.6592-347.8528z" fill="#55524f" p-id="5494"></path><path d="M788.5824 389.8368c-14.1312 0-25.6-11.4688-25.6-25.6V242.944c0-2.816-2.304-5.12-5.12-5.12h-121.2928c-14.1312 0-25.6-11.4688-25.6-25.6s11.4688-25.6 25.6-25.6h121.2928c31.0784 0 56.32 25.2416 56.32 56.32v121.2928c0 14.1312-11.4688 25.6-25.6 25.6zM587.008 700.5184h-150.016c-25.3952 0-46.08-20.6848-46.08-46.08V504.4736c0-25.3952 20.6848-46.08 46.08-46.08h149.9648c25.3952 0 46.08 20.6848 46.08 46.08v149.9648c0.0512 25.3952-20.6336 46.08-46.0288 46.08z m-144.896-51.2h139.7248V509.5936H442.112v139.7248z" fill="#55524f" p-id="5495"></path></svg>